<svg width="40" height="40" viewBox="0 0 40 40" fill="none" xmlns="http://www.w3.org/2000/svg">
<g filter="url(#filter0_d_4_5002)">
<rect x="2" y="1" width="36" height="36" rx="10" fill="#0DA487"/>
<path d="M26.25 18.375C26.2494 17.7041 26.069 17.0457 25.7274 16.4682C25.3859 15.8908 24.8958 15.4155 24.3081 15.0919C24.751 14.6299 24.9988 14.015 25 13.375H23.75C23.7497 13.7064 23.6179 14.0242 23.3835 14.2585C23.1492 14.4929 22.8314 14.6247 22.5 14.625C21.5178 14.6263 20.5752 15.0127 19.8746 15.7012C19.1741 16.3897 18.7714 17.3254 18.7531 18.3075C17.9518 17.4913 17.502 16.3938 17.5 15.25C17.4984 14.6973 17.3134 14.1607 16.9741 13.7243C16.6348 13.288 16.1603 12.9765 15.625 12.8388V11.5H14.375V12.8388C13.8397 12.9765 13.3652 13.288 13.0259 13.7243C12.6866 14.1607 12.5016 14.6973 12.5 15.25V18.375H11.25V19C11.25 21.3206 12.1719 23.5462 13.8128 25.1872C15.4538 26.8281 17.6794 27.75 20 27.75C22.3206 27.75 24.5462 26.8281 26.1872 25.1872C27.8281 23.5462 28.75 21.3206 28.75 19V18.375H26.25ZM22.5 15.875C23.1628 15.8758 23.7982 16.1395 24.2669 16.6081C24.7355 17.0768 24.9992 17.7122 25 18.375H20C20.0008 17.7122 20.2645 17.0768 20.7331 16.6081C21.2018 16.1395 21.8372 15.8758 22.5 15.875ZM13.75 15.25C13.75 14.9185 13.8817 14.6005 14.1161 14.3661C14.3505 14.1317 14.6685 14 15 14C15.3315 14 15.6495 14.1317 15.8839 14.3661C16.1183 14.6005 16.25 14.9185 16.25 15.25C16.2525 16.3635 16.5858 17.4512 17.2075 18.375H13.75V15.25ZM20 26.5C18.1197 26.4977 16.3087 25.7901 14.9248 24.5172C13.5409 23.2443 12.6848 21.4986 12.5256 19.625H27.475C27.3159 21.4987 26.4597 23.2445 25.0756 24.5174C23.6916 25.7904 21.8804 26.4978 20 26.5Z" fill="white"/>
<rect x="2.5" y="1.5" width="35" height="35" rx="9.5" stroke="#0DA487"/>
</g>
<defs>
<filter id="filter0_d_4_5002" x="0" y="0" width="40" height="40" filterUnits="userSpaceOnUse" color-interpolation-filters="sRGB">
<feFlood flood-opacity="0" result="BackgroundImageFix"/>
<feColorMatrix in="SourceAlpha" type="matrix" values="0 0 0 0 0 0 0 0 0 0 0 0 0 0 0 0 0 0 127 0" result="hardAlpha"/>
<feOffset dy="1"/>
<feGaussianBlur stdDeviation="1"/>
<feColorMatrix type="matrix" values="0 0 0 0 0.0627451 0 0 0 0 0.0941176 0 0 0 0 0.156863 0 0 0 0.05 0"/>
<feBlend mode="normal" in2="BackgroundImageFix" result="effect1_dropShadow_4_5002"/>
<feBlend mode="normal" in="SourceGraphic" in2="effect1_dropShadow_4_5002" result="shape"/>
</filter>
</defs>
</svg>
