<svg width="35" height="35" viewBox="0 0 35 35" fill="none" xmlns="http://www.w3.org/2000/svg">
<path d="M34.8001 11.9096C34.8002 9.64787 34.1067 7.43885 32.8105 5.57187C31.5143 3.7049 29.6756 2.267 27.5356 1.44654C25.3955 0.626078 23.0537 0.461306 20.817 0.973794C18.5801 1.48628 16.5527 2.65215 15.0001 4.31867H0.600098V34.2505H31.0039V20.2618C32.1972 19.2107 33.1522 17.9236 33.8063 16.4844C34.4604 15.0451 34.799 13.4864 34.8001 11.9096ZM28.9501 11.9096C28.9524 12.9933 28.6282 14.0534 28.0185 14.9557C27.4087 15.8579 26.541 16.5617 25.5249 16.978C24.5088 17.3944 23.3903 17.5045 22.3106 17.2944C21.2311 17.0844 20.239 16.5636 19.46 15.798C18.6811 15.0324 18.1503 14.0565 17.9348 12.9937C17.7192 11.9309 17.8287 10.829 18.2493 9.82753C18.6699 8.82601 19.3827 7.96991 20.2975 7.36756C21.2124 6.7652 22.2881 6.44368 23.3885 6.44367C24.8615 6.44367 26.2744 7.01918 27.317 8.04391C28.3598 9.06863 28.9471 10.4589 28.9501 11.9096ZM25.1539 28.4891H6.4501V10.08H12.1501C12.04 10.684 11.9821 11.2961 11.977 11.9096C11.9801 14.8894 13.1833 17.7462 15.3228 19.8532C17.4622 21.9601 20.3629 23.1453 23.3885 23.1482C23.9801 23.1451 24.5704 23.0957 25.1539 23.0005V28.4891Z" fill="#0DA487"/>
</svg>
